<svg width="112" height="55" viewBox="0 0 112 55" fill="none" xmlns="http://www.w3.org/2000/svg">
<path d="M45.0318 19.2018C47.9809 23.0855 52.2488 25.1467 54.0141 25.6919C51.335 27.9972 46.6153 25.216 44.5904 23.5372C44.5904 23.5372 45.3263 25.6288 46.1221 26.7822C50.2238 32.7272 55.9092 29.7417 59.1802 27.8466C61.797 26.3305 62.9704 26.9899 63.23 27.5091C57.5187 31.1436 56.8178 33.506 52.1709 33.506C45.4986 33.506 44.1231 29.3004 39.1647 23.1737C37.5812 21.2172 35.4524 18.9162 34.3101 18.1893C36.6552 16.9086 42.0827 15.3181 45.0318 19.2018Z" fill="#147ABA"/>
<path d="M56.688 28.8071C56.688 28.8071 50.769 32.2858 46.7451 26.9899C47.2384 27.2495 47.6691 28.2435 51.1844 28.8071C55.1977 29.4505 57.337 26.7822 58.8427 26.0034C61.4182 24.6712 62.1916 25.6919 62.1916 26.3149C60.6445 26.4131 59.2298 27.2691 56.7286 28.7825L56.688 28.8071Z" fill="#147ABA"/>
<path d="M58.504 25.8765C59.5822 25.1658 60.8762 24.9951 61.4575 25.0889C57.3806 24.4313 58.3296 26.3663 53.5816 27.7048C51.3273 28.3403 48.5872 27.868 46.4652 26.3546L46.4719 26.3598C47.9883 27.5111 49.4201 28.5982 52.4565 28.5205C54.8789 28.4585 56.0288 27.5079 58.504 25.8765Z" fill="#147ABA"/>
<path d="M66.9683 14.3042C64.0192 10.4205 59.7513 8.35923 57.986 7.81406C60.6651 5.50877 65.3847 8.29 67.4096 9.96877C67.4096 9.96877 66.6738 7.87716 65.878 6.72372C61.7762 0.778785 56.0909 3.76423 52.8199 5.65934C50.2031 7.17543 49.0297 6.51604 48.77 5.99683C54.4813 2.3624 55.1823 -3.10909e-05 59.8292 -3.05176e-05C66.5015 -2.96944e-05 67.8769 4.20559 72.8354 10.3322C74.4189 12.2888 76.5477 14.5897 77.69 15.3166C75.3449 16.5973 69.9174 18.1878 66.9683 14.3042Z" fill="#D756B0"/>
<path d="M55.3121 4.69883C55.3121 4.69883 61.2311 1.22014 65.2549 6.51606C64.7617 6.25646 64.3309 5.2624 60.8157 4.69883C56.8023 4.05541 54.6631 6.72372 53.1574 7.50256C50.5819 8.83475 49.8085 7.81406 49.8085 7.19103C51.3556 7.09286 52.7703 6.23683 55.2714 4.72342L55.3121 4.69883Z" fill="#D756B0"/>
<path d="M53.496 7.62947C52.4178 8.34008 51.1239 8.51082 50.5425 8.41706C54.6194 9.07462 53.6705 7.13964 58.4184 5.80113C60.6728 5.16561 63.4128 5.6379 65.5349 7.15129L65.5281 7.14614C64.0117 5.9948 62.5799 4.90773 59.5436 4.98544C57.1211 5.04743 55.9713 5.99805 53.496 7.62947Z" fill="#D756B0"/>
<path d="M55.9733 11.4883C55.1014 12.2148 54.536 13.0632 54.1681 14.0227C54.3661 14.3123 54.5529 14.6121 54.7294 14.9168C55.0918 14.7882 55.4816 14.7179 55.8877 14.7179C56.3021 14.7179 56.6996 14.791 57.0683 14.9248C57.2784 14.5884 57.5004 14.2563 57.7376 13.9365C57.373 13.0444 56.8247 12.2215 55.9733 11.4883ZM60.1348 12.2363C59.052 12.8966 58.2042 13.9621 57.4795 15.1051C57.9876 15.3685 58.4223 15.7543 58.7452 16.2227C59.283 15.7012 59.862 15.1885 60.4962 14.6747C60.4758 13.9344 60.3619 13.1217 60.1348 12.2363ZM51.956 12.2617C51.7375 13.1411 51.6217 13.9458 51.5914 14.6773C52.1386 15.1425 52.6444 15.6134 53.1153 16.1045C53.4343 15.6808 53.8477 15.332 54.3245 15.0904C53.6681 13.9727 52.8772 12.9412 51.956 12.2617ZM50.6913 14.502C50.2913 17.0051 50.7915 18.8544 51.7407 20.0905C52.2603 20.767 52.9169 21.2632 53.6434 21.5816C53.1594 20.7491 53.0417 19.8029 53.2586 18.8916C53.3667 18.4371 53.5562 17.9912 53.8209 17.569C52.9373 16.4544 51.9193 15.4837 50.6913 14.502L50.6913 14.502ZM61.4083 14.5127C60.0212 15.5765 58.8967 16.6136 57.9017 17.7241C58.1246 18.1351 58.2779 18.5618 58.3586 18.9921C58.5226 19.8673 58.382 20.7559 57.9344 21.5387C58.6804 21.2085 59.3709 20.705 59.9386 20.0279C60.9806 18.7852 61.6158 16.9542 61.4083 14.5127L61.4083 14.5127ZM55.8877 15.1508C54.8662 15.1508 53.9642 15.6528 53.4143 16.4239C53.6433 16.6751 53.8646 16.9333 54.0778 17.1982C54.5075 16.6326 55.0792 16.1214 55.7776 15.7057L55.8951 15.6357L56.0088 15.7119C56.7127 16.1832 57.2685 16.7387 57.6687 17.3379C57.9172 17.0627 58.1722 16.7935 58.4335 16.5305C57.8925 15.6994 56.9554 15.1508 55.8877 15.1508ZM55.8815 16.1512C54.6865 16.8989 53.931 17.9358 53.6798 18.9918C53.4263 20.0568 53.6728 21.1384 54.5135 22.0176H57.0365C57.8429 21.1748 58.1305 20.126 57.933 19.0719C57.7368 18.0253 57.0529 16.9721 55.8815 16.1512L55.8815 16.1512Z" fill="#00AE00"/>
<path d="M2.30923 51.3533C2.05265 51.3533 1.85439 51.2891 1.71444 51.1608C1.58615 51.0209 1.522 50.8226 1.522 50.566V39.8072C1.522 39.5506 1.58615 39.3582 1.71444 39.2299C1.85439 39.09 2.05265 39.02 2.30923 39.02H6.45532C7.30669 39.02 8.02395 39.1483 8.60708 39.4048C9.20188 39.6498 9.65673 40.0113 9.97162 40.4895C10.2865 40.9676 10.444 41.5508 10.444 42.2389C10.444 43.0086 10.2165 43.6501 9.76169 44.1632C9.31851 44.6764 8.71205 45.0146 7.94231 45.1779V44.933C8.81701 45.0379 9.49928 45.3528 9.98911 45.8776C10.4906 46.4025 10.7414 47.0964 10.7414 47.9594C10.7414 49.0557 10.3856 49.8954 9.67422 50.4786C8.9628 51.0617 7.9598 51.3533 6.66525 51.3533H2.30923ZM2.92152 50.1987H6.52529C7.45831 50.1987 8.15807 50.0121 8.62458 49.6389C9.09109 49.2657 9.32434 48.7 9.32434 47.9419C9.32434 47.1722 9.09109 46.6066 8.62458 46.245C8.15807 45.8718 7.45831 45.6852 6.52529 45.6852H2.92152V50.1987ZM2.92152 44.5306H6.24539C7.15508 44.5306 7.84318 44.344 8.30969 43.9708C8.78786 43.5976 9.02694 43.0611 9.02694 42.3613C9.02694 41.6383 8.78786 41.0959 8.30969 40.7344C7.84318 40.3612 7.15508 40.1746 6.24539 40.1746H2.92152V44.5306ZM14.0614 51.4757C13.8281 51.4757 13.6474 51.4116 13.5191 51.2833C13.4025 51.1433 13.3441 50.9567 13.3441 50.7235V39.7547C13.3441 39.5098 13.4083 39.329 13.5366 39.2124C13.6649 39.0841 13.8456 39.02 14.0789 39.02H18.225C19.5429 39.02 20.5575 39.329 21.2689 39.9472C21.9804 40.5653 22.3361 41.4458 22.3361 42.5888C22.3361 43.3118 22.1728 43.9416 21.8462 44.4781C21.5313 45.0029 21.0648 45.4053 20.4467 45.6852C19.8286 45.9534 19.088 46.0876 18.225 46.0876L18.3999 45.8601H18.7498C19.2046 45.8601 19.6012 45.9768 19.9394 46.21C20.2776 46.4433 20.5867 46.8165 20.8666 47.3296L22.546 50.4611C22.6393 50.6244 22.6801 50.7876 22.6685 50.9509C22.6685 51.1025 22.616 51.2308 22.511 51.3358C22.406 51.4291 22.2544 51.4757 22.0562 51.4757C21.8579 51.4757 21.6946 51.4291 21.5663 51.3358C21.438 51.2425 21.3272 51.1084 21.2339 50.9334L19.3271 47.3996C19.0589 46.8981 18.7498 46.5657 18.3999 46.4025C18.05 46.2275 17.5894 46.1401 17.0179 46.1401H14.7787V50.7235C14.7787 50.9567 14.7203 51.1433 14.6037 51.2833C14.4871 51.4116 14.3063 51.4757 14.0614 51.4757ZM14.7787 45.0029H18.015C18.9714 45.0029 19.6945 44.8047 20.1843 44.4081C20.6741 43.9999 20.9191 43.3935 20.9191 42.5888C20.9191 41.8074 20.6741 41.2184 20.1843 40.8219C19.6945 40.4137 18.9714 40.2096 18.015 40.2096H14.7787V45.0029ZM25.7639 51.4757C25.5307 51.4757 25.3499 51.4116 25.2216 51.2833C25.105 51.1433 25.0467 50.9567 25.0467 50.7235V39.6498C25.0467 39.4048 25.105 39.2182 25.2216 39.09C25.3499 38.9617 25.5307 38.8975 25.7639 38.8975C25.9972 38.8975 26.1721 38.9617 26.2888 39.09C26.4171 39.2182 26.4812 39.4048 26.4812 39.6498V50.7235C26.4812 50.9567 26.4229 51.1433 26.3063 51.2833C26.1896 51.4116 26.0089 51.4757 25.7639 51.4757ZM35.1729 51.5107C33.855 51.5107 32.7412 51.26 31.8315 50.7585C30.9335 50.257 30.2512 49.5339 29.7847 48.5892C29.3182 47.6445 29.0849 46.5133 29.0849 45.1954C29.0849 44.2157 29.2132 43.3352 29.4698 42.5538C29.738 41.7724 30.1229 41.1134 30.6244 40.5769C31.1376 40.0288 31.7557 39.6089 32.4788 39.3174C33.2135 39.0141 34.0416 38.8625 34.9629 38.8625C35.6977 38.8625 36.4091 38.9675 37.0972 39.1774C37.7853 39.3757 38.3976 39.6964 38.9341 40.1396C39.074 40.2446 39.1615 40.3612 39.1965 40.4895C39.2315 40.6178 39.2256 40.7461 39.179 40.8743C39.144 41.0026 39.0799 41.1134 38.9866 41.2067C38.9049 41.2884 38.7941 41.335 38.6542 41.3467C38.5259 41.3583 38.3918 41.3175 38.2518 41.2242C37.7736 40.851 37.2663 40.5828 36.7298 40.4195C36.1933 40.2446 35.5985 40.1571 34.9454 40.1571C34.0124 40.1571 33.2194 40.3554 32.5663 40.7519C31.9248 41.1484 31.435 41.7199 31.0968 42.4663C30.7702 43.2127 30.6069 44.1224 30.6069 45.1954C30.6069 46.8281 30.986 48.0761 31.744 48.9391C32.5138 49.8021 33.6684 50.2337 35.2078 50.2337C35.7677 50.2337 36.3158 50.1812 36.8523 50.0762C37.3888 49.9596 37.8961 49.8021 38.3743 49.6039L38.0594 50.4261V46.0701H35.5577C35.3478 46.0701 35.1904 46.0176 35.0854 45.9126C34.9804 45.8077 34.9279 45.6677 34.9279 45.4928C34.9279 45.3062 34.9804 45.1662 35.0854 45.0729C35.1904 44.9796 35.3478 44.933 35.5577 44.933H38.6892C38.8874 44.933 39.039 44.9854 39.144 45.0904C39.249 45.1954 39.3015 45.347 39.3015 45.5453V50.1112C39.3015 50.2861 39.2723 50.4319 39.214 50.5485C39.1557 50.6652 39.0565 50.7526 38.9166 50.811C38.4268 51.0092 37.8378 51.1783 37.1497 51.3183C36.4733 51.4466 35.8143 51.5107 35.1729 51.5107ZM42.9505 51.4757C42.7172 51.4757 42.5364 51.4116 42.4081 51.2833C42.2915 51.1433 42.2332 50.9567 42.2332 50.7235V39.6498C42.2332 39.4048 42.2915 39.2182 42.4081 39.09C42.5364 38.9617 42.7172 38.8975 42.9505 38.8975C43.1837 38.8975 43.3587 38.9617 43.4753 39.09C43.6036 39.2182 43.6677 39.4048 43.6677 39.6498V44.4781H51.0677V39.6498C51.0677 39.4048 51.126 39.2182 51.2426 39.09C51.3709 38.9617 51.5517 38.8975 51.7849 38.8975C52.0182 38.8975 52.1931 38.9617 52.3098 39.09C52.4381 39.2182 52.5022 39.4048 52.5022 39.6498V50.7235C52.5022 50.9567 52.4381 51.1433 52.3098 51.2833C52.1931 51.4116 52.0182 51.4757 51.7849 51.4757C51.5517 51.4757 51.3709 51.4116 51.2426 51.2833C51.126 51.1433 51.0677 50.9567 51.0677 50.7235V45.7202H43.6677V50.7235C43.6677 50.9567 43.6094 51.1433 43.4928 51.2833C43.3761 51.4116 43.1954 51.4757 42.9505 51.4757ZM59.2854 51.4757C59.0638 51.4757 58.8888 51.4116 58.7606 51.2833C58.6323 51.1433 58.5681 50.9567 58.5681 50.7235V40.2621H54.632C54.422 40.2621 54.2588 40.2037 54.1421 40.0871C54.0255 39.9705 53.9672 39.8189 53.9672 39.6323C53.9672 39.434 54.0255 39.2824 54.1421 39.1774C54.2588 39.0725 54.422 39.02 54.632 39.02H63.9563C64.1662 39.02 64.3295 39.0725 64.4461 39.1774C64.5627 39.2824 64.6211 39.434 64.6211 39.6323C64.6211 39.8305 64.5627 39.988 64.4461 40.1046C64.3295 40.2096 64.1662 40.2621 63.9563 40.2621H60.0201V50.7235C60.0201 50.9567 59.956 51.1433 59.8277 51.2833C59.7111 51.4116 59.5303 51.4757 59.2854 51.4757ZM71.6285 51.5282C70.3456 51.5282 69.2435 51.2716 68.3221 50.7585C67.4124 50.2337 66.7127 49.4989 66.2229 48.5542C65.733 47.5979 65.4881 46.4724 65.4881 45.1779C65.4881 44.2099 65.6281 43.341 65.908 42.5713C66.1879 41.7899 66.5902 41.1251 67.115 40.5769C67.6399 40.0171 68.2813 39.5915 69.0394 39.2999C69.8091 38.9967 70.6722 38.845 71.6285 38.845C72.27 38.845 72.8997 38.9267 73.5179 39.09C74.136 39.2532 74.6783 39.4865 75.1448 39.7897C75.3897 39.9413 75.553 40.1279 75.6346 40.3495C75.7163 40.5595 75.7338 40.7694 75.6871 40.9793C75.6405 41.1776 75.5413 41.3467 75.3897 41.4866C75.2498 41.6266 75.069 41.7082 74.8474 41.7316C74.6375 41.7432 74.4042 41.6674 74.1476 41.5041C73.7861 41.2709 73.3954 41.1018 72.9755 40.9968C72.5557 40.8918 72.13 40.8394 71.6985 40.8394C70.8704 40.8394 70.1707 41.0085 69.5992 41.3467C69.0277 41.6849 68.5962 42.1747 68.3046 42.8162C68.0131 43.4576 67.8673 44.2449 67.8673 45.1779C67.8673 46.0992 68.0131 46.8865 68.3046 47.5396C68.5962 48.1927 69.0277 48.6883 69.5992 49.0266C70.1707 49.3648 70.8704 49.5339 71.6985 49.5339C72.1417 49.5339 72.579 49.4814 73.0105 49.3764C73.4421 49.2598 73.8502 49.0849 74.2351 48.8516C74.4917 48.7 74.7191 48.6359 74.9174 48.6592C75.1273 48.6709 75.3023 48.7408 75.4422 48.8691C75.5822 48.9974 75.6755 49.1607 75.7221 49.359C75.7688 49.5456 75.7571 49.7438 75.6871 49.9537C75.6171 50.152 75.4772 50.327 75.2673 50.4786C74.8008 50.8168 74.2409 51.0792 73.5878 51.2658C72.9464 51.4407 72.2933 51.5282 71.6285 51.5282ZM77.6471 51.4932C77.3672 51.4932 77.1398 51.4291 76.9649 51.3008C76.8016 51.1725 76.7025 51.0034 76.6675 50.7935C76.6325 50.5719 76.6733 50.327 76.7899 50.0587L81.4084 39.8247C81.56 39.4865 81.7407 39.2474 81.9507 39.1074C82.1723 38.9558 82.423 38.88 82.7029 38.88C82.9712 38.88 83.2102 38.9558 83.4202 39.1074C83.6418 39.2474 83.8284 39.4865 83.98 39.8247L88.6159 50.0587C88.7442 50.327 88.7908 50.5719 88.7558 50.7935C88.7209 51.0151 88.6217 51.19 88.4585 51.3183C88.2952 51.4349 88.0794 51.4932 87.8112 51.4932C87.4846 51.4932 87.228 51.4174 87.0414 51.2658C86.8665 51.1025 86.709 50.8576 86.5691 50.5311L85.432 47.8895L86.3767 48.5017H78.9942L79.9389 47.8895L78.8192 50.5311C78.6676 50.8693 78.5102 51.1142 78.3469 51.2658C78.1836 51.4174 77.9504 51.4932 77.6471 51.4932ZM82.6679 41.4516L80.2188 47.2772L79.7639 46.7174H85.6069L85.1696 47.2772L82.7029 41.4516H82.6679ZM91.6623 51.4932C91.3008 51.4932 91.0209 51.3941 90.8226 51.1958C90.636 50.9859 90.5427 50.7002 90.5427 50.3386V40.1571C90.5427 39.7839 90.6418 39.504 90.8401 39.3174C91.0384 39.1191 91.3183 39.02 91.6798 39.02H95.8959C97.2487 39.02 98.2925 39.3465 99.0273 39.9996C99.762 40.6411 100.129 41.545 100.129 42.7112C100.129 43.4693 99.9603 44.1224 99.6221 44.6706C99.2955 45.2187 98.8174 45.6386 98.1876 45.9301C97.5578 46.2217 96.7939 46.3675 95.8959 46.3675L96.0533 46.1051H96.6306C97.1088 46.1051 97.5228 46.2217 97.8727 46.4549C98.2342 46.6882 98.5491 47.0556 98.8174 47.5571L100.129 49.9887C100.269 50.2337 100.334 50.4727 100.322 50.706C100.31 50.9392 100.223 51.1317 100.059 51.2833C99.8962 51.4232 99.6571 51.4932 99.3422 51.4932C99.0273 51.4932 98.7707 51.4291 98.5725 51.3008C98.3742 51.1608 98.1992 50.9509 98.0476 50.671L96.2807 47.4171C96.0708 47.0206 95.8201 46.7582 95.5285 46.6299C95.2486 46.4899 94.887 46.42 94.4439 46.42H92.7819V50.3386C92.7819 50.7002 92.6886 50.9859 92.502 51.1958C92.3154 51.3941 92.0355 51.4932 91.6623 51.4932ZM92.7819 44.758H95.511C96.3157 44.758 96.9222 44.5947 97.3304 44.2682C97.7502 43.93 97.9602 43.4285 97.9602 42.7637C97.9602 42.1106 97.7502 41.6208 97.3304 41.2942C96.9222 40.956 96.3157 40.7869 95.511 40.7869H92.7819V44.758ZM103.725 51.3533C103.34 51.3533 103.043 51.2541 102.833 51.0559C102.635 50.8459 102.536 50.5485 102.536 50.1637V40.2096C102.536 39.8247 102.635 39.5331 102.833 39.3349C103.043 39.1249 103.34 39.02 103.725 39.02H109.971C110.262 39.02 110.484 39.0958 110.635 39.2474C110.799 39.399 110.88 39.6148 110.88 39.8947C110.88 40.1862 110.799 40.4137 110.635 40.5769C110.484 40.7286 110.262 40.8044 109.971 40.8044H104.687V44.1982H109.586C109.889 44.1982 110.116 44.274 110.268 44.4256C110.42 44.5773 110.495 44.7988 110.495 45.0904C110.495 45.382 110.42 45.6036 110.268 45.7552C110.116 45.9068 109.889 45.9826 109.586 45.9826H104.687V49.5689H109.971C110.262 49.5689 110.484 49.6447 110.635 49.7963C110.799 49.9479 110.88 50.1695 110.88 50.4611C110.88 50.7526 110.799 50.9742 110.635 51.1258C110.484 51.2775 110.262 51.3533 109.971 51.3533H103.725Z" fill="#147ABA"/>
</svg>
